<svg width="154" height="56" viewBox="0 0 154 56" fill="none" xmlns="http://www.w3.org/2000/svg"><path d="M74.114 23.258c-8.6-2.311-11.957-4.264-11.957-8.207 0-5.977 7.694-6.557 10.45-6.557 4.335 0 9.846 1.38 13.108 2.982l3.458-6.464C84.768 2.849 78.02 1.4 72.378 1.4c-12.008 0-19.525 5.198-19.525 14.088 0 10.153 10.602 13.021 18.845 15.23 8.585 2.308 11.58 4.91 11.58 8.855 0 6.577-7.016 7.602-11.359 7.602-5.962 0-10.883-1.583-15.693-4.407l-4.105 6.614C58.189 52.94 64.483 54.6 71.919 54.6c12.42 0 20.669-6.114 20.669-15.58 0-10.57-10.036-13.496-18.474-15.762zm-32.355-5.816C41.627 8.535 34.278 2.32 23.88 2.32H1.4v50.997h8.188V9.766h13.826c4.63 0 9.61 2.292 9.69 7.785.072 4.887-3.77 7.943-10.278 8.205l-.128.009-4.958.041 16.51 27.595 9.672-.018-12.926-21.715c7.336-2.602 10.846-8.36 10.763-14.226zM153.1 53.382l-10.01.02-18.143-39.782-17.384 39.78h-10.07L120.34 2.67l9.393-.007 23.367 50.72zm-4.247-47.626c.159 0 .312-.007.458-.019a.974.974 0 00.385-.104.714.714 0 00.264-.24c.067-.104.1-.25.1-.439a.572.572 0 00-.107-.369.699.699 0 00-.27-.21c-.11-.05-.23-.08-.365-.093a4.256 4.256 0 00-.389-.019h-1.032v1.493h.956zm-.956 2.9h-.855V3.547h1.975c.628 0 1.102.117 1.421.346.318.232.476.605.476 1.123 0 .46-.128.798-.388 1.012-.26.215-.583.341-.969.384l1.459 2.244h-.968l-1.347-2.183h-.804v2.183zm4.526-2.64c0-.56-.091-1.074-.275-1.542a3.62 3.62 0 00-.768-1.21 3.472 3.472 0 00-1.144-.785 3.584 3.584 0 00-1.408-.277 3.66 3.66 0 00-1.427.277 3.46 3.46 0 00-1.151.784c-.327.338-.583.74-.767 1.211a4.158 4.158 0 00-.278 1.543c0 .525.085 1.02.253 1.48.167.461.408.864.723 1.21.313.344.694.618 1.138.82.444.202.947.302 1.509.302.503 0 .973-.094 1.408-.277a3.431 3.431 0 001.144-.785 3.64 3.64 0 00.768-1.204c.184-.463.275-.979.275-1.546zm1.008 0c0 .69-.125 1.32-.371 1.889a4.404 4.404 0 01-1.006 1.455 4.556 4.556 0 01-1.472.939 4.72 4.72 0 01-1.754.332 4.84 4.84 0 01-1.868-.351 4.37 4.37 0 01-1.459-.97 4.415 4.415 0 01-.954-1.461 4.792 4.792 0 01-.347-1.832 4.7 4.7 0 01.37-1.888 4.446 4.446 0 011.006-1.458 4.537 4.537 0 011.479-.936 4.75 4.75 0 011.773-.335c.612 0 1.197.111 1.754.335a4.416 4.416 0 012.478 2.394 4.7 4.7 0 01.371 1.888z" fill="#BE3A34"/></svg>